<svg width="579.96" height="185.93" version="1.1" viewBox="0 0 289.98 92.965" xml:space="preserve" xmlns="http://www.w3.org/2000/svg" xmlns:xlink="http://www.w3.org/1999/xlink"><defs><linearGradient id="linearGradient4602"><stop offset="0"/></linearGradient><clipPath id="clipPath28934"><path d="m210.85 113.58c2e-4 11.716-9.4973 21.214-21.213 21.214-11.716-8e-5 -21.213-9.4978-21.213-21.214l-12.17-1.7661v-29.291c0-0.53869 0.2433-0.97236 0.54553-0.97236h65.675c0.30222 0 0.54553 0.43367 0.54553 0.97236v29.291z" fill-opacity="0" stroke="#000" stroke-linecap="round" stroke-linejoin="bevel" stroke-width="1.5875" style="paint-order:stroke markers fill"/></clipPath><clipPath id="clipPath29038"><path d="m198.09 87.404h6.7184c0.42727 0 0.77124 0.30694 0.77124 0.68822v51.259c0 0.38128-0.34397 0.68822-0.77124 0.68822h-6.7184c-0.42727 0-0.77124-0.30694-0.77124-0.68822v-51.259c0-0.38127 0.34397-0.68822 0.77124-0.68822zm-8.0516 7.8985c-0.42726 0-0.77153 0.30706-0.77153 0.68833v50.897c0 0.38127 0.34427 0.68781 0.77153 0.68781h11.056c0.42726 0 0.77101-0.30654 0.77101-0.68781v-6.8492h-3.7755c-0.42727 0-0.77153-0.30654-0.77153-0.68781v-44.048zm-8.0522 7.8982c-0.42726 0-0.77101 0.30706-0.77101 0.68833v51.114c0 0.38127 0.34375 0.68782 0.77101 0.68782h11.129c0.42727 0 0.77153-0.30655 0.77153-0.68782v-7.0657h-3.8478c-0.42726 0-0.77153-0.30706-0.77153-0.68833v-44.048zm-8.0517 7.8982c-0.42727 0-0.77102 0.30706-0.77102 0.68833v50.102c0 0.38127 0.34375 0.68833 0.77102 0.68833h10.478c0.42727 0 0.77153-0.30706 0.77153-0.68833v-6.0534h-3.1977c-0.42726 0-0.77101-0.30706-0.77101-0.68833v-44.048z" clip-path="url(#clipPath28934)" display="none" fill-opacity="0" stroke="#000" stroke-linecap="round" stroke-linejoin="bevel" stroke-width="1.5574" style="paint-order:stroke markers fill"/><path class="powerclip" d="m158.01 81.951h63.258v36.718h-63.258zm40.08 5.4529c-0.42727 0-0.77124 0.30694-0.77124 0.68822v51.259c0 0.38128 0.34397 0.68822 0.77124 0.68822h6.7184c0.42727 0 0.77124-0.30694 0.77124-0.68822v-51.259c0-0.38127-0.34397-0.68822-0.77124-0.68822zm-8.0516 7.8985c-0.42726 0-0.77153 0.30706-0.77153 0.68833v50.897c0 0.38127 0.34427 0.68781 0.77153 0.68781h11.056c0.42726 0 0.77101-0.30654 0.77101-0.68781v-6.8492h-3.7755c-0.42727 0-0.77153-0.30654-0.77153-0.68781v-44.048zm-8.0522 7.8982c-0.42726 0-0.77101 0.30706-0.77101 0.68833v51.114c0 0.38127 0.34375 0.68782 0.77101 0.68782h11.129c0.42727 0 0.77153-0.30655 0.77153-0.68782v-7.0657h-3.8478c-0.42726 0-0.77153-0.30706-0.77153-0.68833v-44.048zm-8.0517 7.8982c-0.42727 0-0.77102 0.30706-0.77102 0.68833v50.102c0 0.38127 0.34375 0.68833 0.77102 0.68833h10.478c0.42727 0 0.77153-0.30706 0.77153-0.68833v-6.0534h-3.1977c-0.42726 0-0.77101-0.30706-0.77101-0.68833v-44.048z" fill-opacity="0" stroke="#000" stroke-linecap="round" stroke-linejoin="bevel" stroke-width="1.5574" style="paint-order:stroke markers fill"/></clipPath><linearGradient id="linearGradient2498" x1="185.69" x2="238.04" y1="170.59" y2="170.59" gradientUnits="userSpaceOnUse"><stop offset="0"/></linearGradient><linearGradient id="linearGradient4187" x1="163.46" x2="215.81" y1="100.49" y2="100.49" gradientUnits="userSpaceOnUse"><stop offset="0"/></linearGradient><linearGradient id="linearGradient4685" gradientUnits="userSpaceOnUse" xlink:href="#linearGradient4602"/><filter id="filter2542" x="-.085966" y="-.034191" width="1.1719" height="1.0684" color-interpolation-filters="sRGB"><feGaussianBlur stdDeviation="0.037004383"/></filter><filter id="filter2546" x="-.0072073" y="-.0023264" width="1.0144" height="1.0047" color-interpolation-filters="sRGB"><feGaussianBlur stdDeviation="0.037004383"/></filter><filter id="filter2550" x="-.014479" y="-.0144" width="1.0288" height="1.0289" color-interpolation-filters="sRGB"><feGaussianBlur stdDeviation="0.13985905"/></filter><filter id="filter2554" x="-.025236" y="-.0035035" width="1.0505" height="1.054" color-interpolation-filters="sRGB"><feGaussianBlur stdDeviation="0.037004383"/></filter><filter id="filter2558" x="-.025236" y="-.050472" width="1.0505" height="1.054" color-interpolation-filters="sRGB"><feGaussianBlur stdDeviation="0.037004383"/></filter><filter id="filter2562" x="-.024475" y="-.016472" width="1.049" height="1.0329" color-interpolation-filters="sRGB"><feGaussianBlur stdDeviation="0.037004383"/></filter><filter id="filter2566" x="-.028246" y="-.01218" width="1.0565" height="1.0244" color-interpolation-filters="sRGB"><feGaussianBlur stdDeviation="0.037004383"/></filter></defs><g transform="translate(-23.101 -120.85)" stroke="#000" stroke-linejoin="round" stroke-width="2.3812" style="paint-order:markers fill stroke"><g fill="#73756c"><path d="m59.813 123.99h-33.806v58.469h13.324v-23.459h18.923v-11.694h-18.923v-11.623h20.482z" filter="url(#filter2542)" opacity=".95" style="paint-order:markers fill stroke;shape-padding:13.1389;white-space:pre"/><path d="m72.641 123.63c-4.1106 0-7.4416 3.331-7.4416 7.4416 0 4.1106 3.331 7.4416 7.4416 7.4416 4.1106 0 7.4416-3.331 7.4416-7.4416 0-4.1106-3.331-7.4416-7.4416-7.4416zm-6.4493 22.466h12.544v36.357h-12.544z" filter="url(#filter2542)" opacity=".95" style="paint-order:markers fill stroke;shape-padding:13.1389;white-space:pre"/><path d="m87.595 182.46h12.544v-20.553c0-3.6145 3.6853-7.0872 7.4416-7.0872 4.0397 0 6.5202 3.4727 6.5202 7.0872v20.553h12.544v-23.955c0-10.135-9.2842-13.466-15.946-13.466-3.9688 0-7.5833 2.0553-10.418 4.8902h-0.14175v-3.8271h-12.544z" filter="url(#filter2542)" opacity=".95" style="paint-order:markers fill stroke;shape-padding:13.1389;white-space:pre"/></g><path d="m165.55 170.41c-13.395 0-19.277-9.3551-19.277-17.222 0-7.7959 5.8824-17.151 19.277-17.151 6.8037 0 11.481 3.6145 11.481 3.6145l5.6698-11.34s-6.5202-5.3863-19.206-5.3863c-16.584 0-31.68 13.607-31.68 30.404 0 16.726 15.167 30.191 31.68 30.191 12.686 0 19.206-5.3863 19.206-5.3863l-5.6698-11.34s-4.6776 3.6145-11.481 3.6145z" fill="#6f8ab7" filter="url(#filter2542)" opacity=".95" style="paint-order:markers fill stroke;shape-padding:13.1389;white-space:pre"/><path d="m294.19 182.46h13.324l-5.2445-58.469h-14.174l-12.97 33.735-12.97-33.735h-14.174l-5.2445 58.469h13.324l2.764-34.656h0.35436l11.977 34.302h7.9376l11.977-34.302h0.35436z" fill="#6f8ab7" filter="url(#filter2542)" opacity=".95" style="paint-order:markers fill stroke;shape-padding:13.1389;white-space:pre"/></g><g transform="translate(-23.101 -120.85)"><g transform="rotate(37 84.9 233.14)" filter="url(#filter2546)" opacity=".95" style="paint-order:stroke fill markers"><path transform="translate(1.5342e-6 -8.9288)" d="m138.84 157.36c-0.41846 0-0.88672 0.47021-0.88672 0.88867v5.4219c0 1.1306 0.45216 2.0634 1.0684 2.7148 0.6162 0.65149 1.3616 1.0596 2.0273 1.3828 1.8839 0.91467 4.2431 0.91467 6.127 0 0.66569-0.32321 1.4131-0.73132 2.0293-1.3828 0.61621-0.65148 1.0684-1.5843 1.0684-2.7148v-5.4219c0-0.41846-0.46825-0.88867-0.88671-0.88867zm0.88672 1.7754h8.7715v4.5352c0 0.69756-0.21637 1.1074-0.58398 1.4961s-0.9201 0.71571-1.5137 1.0039c-1.3256 0.64361-3.2506 0.64361-4.5762 0-0.59357-0.2882-1.1461-0.61525-1.5137-1.0039s-0.58398-0.79853-0.58398-1.4961z" color="#000000" fill="url(#linearGradient4685)" style="paint-order:stroke fill markers"/><path transform="translate(3.1002e-7 -4.685)" d="m138.84 136.77c-0.418 0-0.88672 0.46872-0.88672 0.88672v13.553c0 0.418 0.46872 0.88672 0.88672 0.88672h10.547c0.418 0 0.88672-0.46872 0.88672-0.88672v-13.553c0-0.418-0.46872-0.88672-0.88672-0.88672zm0.88867 1.7754h8.7695v11.777h-8.7695z" color="#000000" fill="none" style="paint-order:stroke fill markers"/><path d="m141.43 125.08c-1.0221 0-1.9295 0.53506-2.5352 1.3047s-0.94922 1.7813-0.94922 2.8828v0.9043c0 0.41846 0.47021 0.88672 0.88867 0.88672h10.545c0.41847 0 0.88868-0.46825 0.88868-0.88672v-0.9043c0-1.1015-0.34353-2.1132-0.94922-2.8828-0.6057-0.76963-1.515-1.3047-2.5371-1.3047zm0 1.7754h5.3516c0.4169 0 0.80743 0.20359 1.1406 0.62696 0.33319 0.42336 0.57032 1.0585 0.57032 1.7852v0.0176h-8.7715v-0.0176c0-0.72664 0.23517-1.3618 0.56836-1.7852 0.33319-0.42337 0.72373-0.62696 1.1406-0.62696z" color="#000000" fill="url(#linearGradient4685)" style="paint-order:stroke fill markers"/><path d="m144.11 125.11v-3.7586" fill="url(#linearGradient4685)" fill-rule="evenodd" stroke="#000" stroke-linejoin="round" stroke-width="2.3812" style="paint-order:stroke fill markers"/><g stroke="#000" stroke-linecap="round" stroke-linejoin="round" stroke-width="9"><path transform="matrix(.21131 -.15923 .15923 .21131 -62.301 158.27)" d="m630.58 470.87c-1.0989-0.39252-3.0868-1.3518-4.4178-2.1318-6.6079-3.8725-11.532-13.828-9.0037-18.202 2.1399-3.702 11.058-14.876 11.562-14.487 0.31801 0.24519 6.1116 4.5771 12.875 9.6266s12.379 9.2468 12.48 9.3275c0.49987 0.39843-11.419 15.375-12.701 15.959-1.9149 0.87248-8.2463 0.81873-10.795-0.0916z" style="paint-order:stroke fill markers"/><path transform="matrix(.21131 -.15923 .15923 .21131 -62.301 158.27)" d="m651.89 431.12-12.929-9.8082 12.596-16.783c6.9279-9.2305 12.908-17.121 13.29-17.534 0.57841-0.62645 2.7734 0.81986 13.176 8.6818 6.8648 5.1884 12.678 9.6092 12.919 9.824 0.34524 0.30816-23.089 32.263-25.517 34.796-0.4527 0.47211-3.8761-1.8488-13.535-9.1762z" style="paint-order:stroke fill markers"/><path transform="matrix(.21131 -.15923 .15923 .21131 -62.301 158.27)" d="m688.76 381.55-12.681-9.6394 1.1501-1.2242c1.7652-1.879 5.6997-3.2079 7.4932-2.531 2.8366 1.0707 18.487 13.273 19.185 14.958 0.97678 2.3582-0.38147 8.2605-1.8706 8.1287-0.32748-0.029-6.3018-4.3904-13.276-9.6921z" style="paint-order:stroke fill markers"/></g></g><path transform="matrix(.26458 0 0 .26458 12.398 84.76)" d="m738.2 365.87c-36.787-6.1669-66.696-35.127-74.766-72.394-3.0032-13.868-2.0389-31.926 2.4713-46.281 14.086-44.829 60.81-72.264 106.64-62.614l6.1299 1.2909 0.2346 4.5382 0.2346 4.5382-2.1668-0.54939c-16.631-4.2168-35.152-3.6928-50.17 1.4193-14.99 5.1026-29.4 15.492-39.375 28.39-12.919 16.705-19.244 39.67-16.58 60.205 4.8263 37.207 30.442 64.77 67.634 72.777 6.5908 1.419 25.654 1.2122 32.533-0.35289 47.898-10.898 76.446-58.164 63.258-104.73-2.3303-8.2292-8.3569-20.59-13.066-26.801-3.4942-4.6077-3.505-4.6412-3.4702-10.82l0.0349-6.1982 4.3029 4.6372c9.2822 10.004 17.164 24.274 20.719 37.511 11.506 42.848-7.6959 86.043-47.562 106.99-15.762 8.2824-38.187 11.603-57.031 8.4435z" fill="#6f8ab7" filter="url(#filter2550)" opacity=".95" stroke="#6f8ab7" stroke-linecap="round" stroke-linejoin="round" stroke-width="4.6372" style="paint-order:stroke fill markers"/><g stroke-linejoin="round"><path d="m233.08 157.5a21.213 21.213 0 0 1-21.213 21.213 21.213 21.213 0 0 1-21.213-21.213m46.563 0a25.349 25.349 0 0 1-25.349 25.349 25.349 25.349 0 0 1-25.349-25.349" fill="none" filter="url(#filter2554)" opacity=".95" stroke="url(#linearGradient2498)" stroke-width="2.3812" style="paint-order:stroke fill markers"/><g><path transform="translate(22.225 43.921)" d="m168.42 113.58a21.213 21.213 0 0 1 21.213-21.213 21.213 21.213 0 0 1 21.213 21.213m-46.563 0a25.349 25.349 0 0 1 25.349-25.349 25.349 25.349 0 0 1 25.349 25.349" clip-path="url(#clipPath29038)" fill="none" filter="url(#filter2558)" opacity=".95" stroke="url(#linearGradient4187)" stroke-width="2.3812" style="paint-order:stroke fill markers"/><g fill="#ffbf00" filter="url(#filter2562)" opacity=".95" stroke="#ffbf00" stroke-linecap="round" stroke-width="5" style="paint-order:stroke fill markers"><path transform="matrix(.26458 0 0 .26458 12.398 84.76)" d="m714.28 340.66c-5.7884-3.5569-10.003-6.882-14.892-11.75l-4.2354-4.2167v-55.81h23.5v37.162c0 20.439-0.0615 37.156-0.13662 37.148-0.0752-8e-3 -1.9811-1.1482-4.2354-2.5334z" style="paint-order:stroke fill markers"/><path transform="matrix(.26458 0 0 .26458 12.398 84.76)" d="m740.51 350.54c-2.2543-0.40834-6.6195-1.5296-9.7004-2.4917l-5.6017-1.7492v-107.48h24.046v112.58l-2.3226-0.0591c-1.2775-0.0325-4.1671-0.39322-6.4214-0.80156z" style="paint-order:stroke fill markers"/><path transform="matrix(.26458 0 0 .26458 12.398 84.76)" d="m755.82 280.36v-71.046h23.5v138.11l-3.9622 1.1752c-5.2812 1.5664-12.528 2.8079-16.395 2.8088l-3.1424 7.5e-4z" style="paint-order:stroke fill markers"/><path transform="matrix(.26458 0 0 .26458 12.398 84.76)" d="m786.42 261.78v-82.522h24.593v147.27l-3.6889 3.4998c-2.0289 1.9249-5.4104 4.7778-7.5144 6.3398-3.7922 2.8152-12.158 7.9324-12.968 7.9324-0.23171 0-0.4213-37.135-0.4213-82.522z" style="paint-order:stroke fill markers"/></g><path transform="translate(22.225 43.921)" d="m198.09 87.404h6.7184c0.42727 0 0.77124 0.30694 0.77124 0.68822v51.259c0 0.38128-0.34397 0.68822-0.77124 0.68822h-6.7184c-0.42727 0-0.77124-0.30694-0.77124-0.68822v-51.259c0-0.38127 0.34397-0.68822 0.77124-0.68822zm-8.0516 7.8985c-0.42726 0-0.77153 0.30706-0.77153 0.68833v50.897c0 0.38127 0.34427 0.68781 0.77153 0.68781h11.056c0.42726 0 0.77101-0.30654 0.77101-0.68781v-6.8492h-3.7755c-0.42727 0-0.77153-0.30654-0.77153-0.68781v-44.048zm-8.0522 7.8982c-0.42726 0-0.77101 0.30706-0.77101 0.68833v51.114c0 0.38127 0.34375 0.68782 0.77101 0.68782h11.129c0.42727 0 0.77153-0.30655 0.77153-0.68782v-7.0657h-3.8478c-0.42726 0-0.77153-0.30706-0.77153-0.68833v-44.048zm-8.0517 7.8982c-0.42727 0-0.77102 0.30706-0.77102 0.68833v50.102c0 0.38127 0.34375 0.68833 0.77102 0.68833h10.478c0.42727 0 0.77153-0.30706 0.77153-0.68833v-6.0534h-3.1977c-0.42726 0-0.77101-0.30706-0.77101-0.68833v-44.048z" clip-path="url(#clipPath28934)" fill-opacity="0" filter="url(#filter2566)" opacity=".95" stroke="#000" stroke-linecap="round" stroke-width="1.6536" style="paint-order:stroke fill markers"/></g></g></g><g transform="translate(-23.101 -120.85)" display="none" fill-opacity="0" stroke="#000" stroke-linecap="round" stroke-linejoin="bevel" stroke-width="1.5875"><path d="m179.03 158.29h65.675c0.30222 0 0.54552 0.43368 0.54552 0.97236v29.291c0 0.53869-0.2433 0.97236-0.54552 0.97236h-65.675c-0.30223 0-0.54553-0.43367-0.54553-0.97236v-29.291c0-0.53868 0.2433-0.97236 0.54553-0.97236zm54.051-0.79376c-8e-5 -11.716-9.4975-21.213-21.213-21.213-11.716 8e-5 -21.213 9.4975-21.213 21.213" display="inline" style="paint-order:stroke markers fill"/><path d="m233.08 157.5c2e-4 11.716-9.4973 21.214-21.213 21.214-11.716-8e-5 -21.213-9.4978-21.213-21.214l-12.17-1.7661v-29.291c0-0.53869 0.2433-0.97236 0.54553-0.97236h65.675c0.30222 0 0.54553 0.43367 0.54553 0.97236v29.291z" display="inline" style="paint-order:stroke markers fill"/></g></svg>
