<?xml version="1.0" encoding="UTF-8" standalone="no"?>
<!-- Created with Inkscape (http://www.inkscape.org/) -->

<svg
   width="1200"
   height="500"
   viewBox="0 0 317.5 132.29174"
   version="1.1"
   id="svg5"
   inkscape:version="1.2.1 (9c6d41e410, 2022-07-14)"
   sodipodi:docname="fincom_logo_full.svg"
   xml:space="preserve"
   xmlns:inkscape="http://www.inkscape.org/namespaces/inkscape"
   xmlns:sodipodi="http://sodipodi.sourceforge.net/DTD/sodipodi-0.dtd"
   xmlns:xlink="http://www.w3.org/1999/xlink"
   xmlns="http://www.w3.org/2000/svg"
   xmlns:svg="http://www.w3.org/2000/svg"><sodipodi:namedview
     id="namedview7"
     pagecolor="#dddddd"
     bordercolor="#eeeeee"
     borderopacity="0"
     inkscape:showpageshadow="0"
     inkscape:pageopacity="0"
     inkscape:pagecheckerboard="true"
     inkscape:deskcolor="#505050"
     inkscape:document-units="px"
     showgrid="false"
     showborder="false"
     borderlayer="false"
     inkscape:zoom="1.829812"
     inkscape:cx="417.52923"
     inkscape:cy="370.80312"
     inkscape:window-width="3840"
     inkscape:window-height="2080"
     inkscape:window-x="2869"
     inkscape:window-y="-11"
     inkscape:window-maximized="1"
     inkscape:current-layer="layer2" /><defs
     id="defs2"><linearGradient
       id="linearGradient4683"
       x1="0"
       y1="0"
       x2="1"
       y2="0"
       gradientUnits="objectBoundingBox"
       spreadMethod="pad"><stop
         style="stop-color:#000000;stop-opacity:1;"
         offset="0"
         id="stop4681" /></linearGradient><linearGradient
       id="linearGradient4679"><stop
         style="stop-color:#edf4fe;stop-opacity:1;"
         offset="0"
         id="stop4677" /></linearGradient><linearGradient
       id="linearGradient4602"
       inkscape:swatch="solid"><stop
         style="stop-color:#000000;stop-opacity:1;"
         offset="0"
         id="stop4600" /></linearGradient><linearGradient
       id="linearGradient4185"><stop
         style="stop-color:#020088;stop-opacity:1;"
         offset="0"
         id="stop4183" /></linearGradient><linearGradient
       id="linearGradient2516"><stop
         style="stop-color:#000000;stop-opacity:1;"
         offset="0"
         id="stop2514" /></linearGradient><linearGradient
       id="linearGradient2510"><stop
         style="stop-color:#000000;stop-opacity:1;"
         offset="0"
         id="stop2508" /></linearGradient><linearGradient
       id="linearGradient2504"><stop
         style="stop-color:#000000;stop-opacity:1;"
         offset="0"
         id="stop2502" /></linearGradient><linearGradient
       id="linearGradient2496"><stop
         style="stop-color:#000000;stop-opacity:1;"
         offset="0"
         id="stop2494" /></linearGradient><linearGradient
       id="linearGradient12677"
       xlink:href="#linearGradient4679"><stop
         style="stop-color:#000000;stop-opacity:1;"
         offset="0"
         id="stop12675" /></linearGradient><linearGradient
       id="linearGradient12671"
       inkscape:swatch="solid"><stop
         style="stop-color:#73756c;stop-opacity:1;"
         offset="0"
         id="stop12669" /></linearGradient><linearGradient
       id="linearGradient12665"
       inkscape:swatch="solid"><stop
         style="stop-color:#ffbf00;stop-opacity:1;"
         offset="0"
         id="stop12663" /></linearGradient><linearGradient
       id="linearGradient12659"
       inkscape:swatch="solid"><stop
         style="stop-color:#edf4fe;stop-opacity:1;"
         offset="0"
         id="stop12657" /></linearGradient><linearGradient
       id="linearGradient12653"
       inkscape:swatch="solid"
       gradientTransform="matrix(0.16322271,0,0,0.16322271,1201.7125,720.22491)"><stop
         style="stop-color:#6f8ab7;stop-opacity:1;"
         offset="0"
         id="stop12651" /></linearGradient><linearGradient
       id="linearGradient12647"
       inkscape:swatch="solid"
       gradientTransform="matrix(0.36912458,0,0,0.36912458,-44.574517,16.522373)"><stop
         style="stop-color:#020088;stop-opacity:1;"
         offset="0"
         id="stop12645" /></linearGradient><rect
       x="166.55428"
       y="261.23132"
       width="936.7229"
       height="363.63708"
       id="rect36570" /><rect
       x="223.3605"
       y="275.91592"
       width="491.93411"
       height="275.52948"
       id="rect36514" /><inkscape:path-effect
       effect="powerclip"
       id="path-effect29042"
       is_visible="true"
       lpeversion="1"
       inverse="true"
       flatten="false"
       hide_clip="false"
       message="Use fill-rule evenodd on &lt;b&gt;fill and stroke&lt;/b&gt; dialog if no flatten result after convert clip to paths." /><inkscape:path-effect
       effect="powerclip"
       id="path-effect15913"
       is_visible="true"
       lpeversion="1"
       inverse="true"
       flatten="false"
       hide_clip="false"
       message="Use fill-rule evenodd on &lt;b&gt;fill and stroke&lt;/b&gt; dialog if no flatten result after convert clip to paths." /><inkscape:path-effect
       effect="powerclip"
       id="path-effect15902"
       is_visible="true"
       lpeversion="1"
       inverse="true"
       flatten="false"
       hide_clip="false"
       message="Use fill-rule evenodd on &lt;b&gt;fill and stroke&lt;/b&gt; dialog if no flatten result after convert clip to paths." /><inkscape:path-effect
       effect="powerclip"
       id="path-effect15894"
       is_visible="true"
       lpeversion="1"
       inverse="true"
       flatten="false"
       hide_clip="false"
       message="Use fill-rule evenodd on &lt;b&gt;fill and stroke&lt;/b&gt; dialog if no flatten result after convert clip to paths." /><inkscape:path-effect
       effect="powerclip"
       id="path-effect15883"
       is_visible="true"
       lpeversion="1"
       inverse="true"
       flatten="false"
       hide_clip="false"
       message="Use fill-rule evenodd on &lt;b&gt;fill and stroke&lt;/b&gt; dialog if no flatten result after convert clip to paths." /><inkscape:path-effect
       effect="powerclip"
       id="path-effect15875"
       is_visible="true"
       lpeversion="1"
       inverse="true"
       flatten="false"
       hide_clip="false"
       message="Use fill-rule evenodd on &lt;b&gt;fill and stroke&lt;/b&gt; dialog if no flatten result after convert clip to paths." /><linearGradient
       id="linearGradient11593"><stop
         style="stop-color:#000000;stop-opacity:1;"
         offset="0"
         id="stop11589" /><stop
         style="stop-color:#000000;stop-opacity:0;"
         offset="1"
         id="stop11591" /></linearGradient><clipPath
       clipPathUnits="userSpaceOnUse"
       id="clipPath15871"><path
         id="lpe_path-effect15875"
         style="opacity:1;fill:#000000;fill-opacity:0;stroke:#000000;stroke-width:1.5875;stroke-linecap:round;stroke-linejoin:bevel;stroke-dasharray:none;stroke-dashoffset:0;stroke-opacity:1;paint-order:stroke markers fill"
         class="powerclip"
         d="m 183.85992,91.451087 h 22.81103 v 59.003463 h -22.81103 z m 14.39084,-3.671592 c -0.28037,0 -0.50609,0.366458 -0.50609,0.821655 v 43.16187 c 0,0.4552 0.22572,0.82166 0.50609,0.82166 h 6.19809 c 0.28037,0 0.50608,-0.36646 0.50608,-0.82166 V 88.60115 c 0,-0.455197 -0.22571,-0.821655 -0.50608,-0.821655 z" /></clipPath><clipPath
       clipPathUnits="userSpaceOnUse"
       id="clipath_lpe_path-effect15883"><rect
         style="display:none;opacity:1;fill:#000000;fill-opacity:0;stroke:#000000;stroke-width:1.5875;stroke-linecap:round;stroke-linejoin:bevel;stroke-dasharray:none;stroke-dashoffset:0;stroke-opacity:1;paint-order:stroke markers fill"
         id="rect15885"
         width="7.210259"
         height="44.805183"
         x="197.74467"
         y="87.779495"
         ry="0.82165521"
         rx="0.50608724"
         d="m 198.25076,87.779495 h 6.19809 c 0.28037,0 0.50608,0.366458 0.50608,0.821655 v 43.16187 c 0,0.4552 -0.22571,0.82166 -0.50608,0.82166 h -6.19809 c -0.28037,0 -0.50609,-0.36646 -0.50609,-0.82166 V 88.60115 c 0,-0.455197 0.22572,-0.821655 0.50609,-0.821655 z" /><path
         id="lpe_path-effect15883"
         style="display:block;opacity:1;fill:#000000;fill-opacity:0;stroke:#000000;stroke-width:1.5875;stroke-linecap:round;stroke-linejoin:bevel;stroke-dasharray:none;stroke-dashoffset:0;stroke-opacity:1;paint-order:stroke markers fill"
         class="powerclip"
         d="m 183.83894,91.430112 h 22.23702 v 52.240678 h -22.23702 z m 14.41182,-3.650617 c -0.28037,0 -0.50609,0.366458 -0.50609,0.821655 v 43.16187 c 0,0.4552 0.22572,0.82166 0.50609,0.82166 h 6.19809 c 0.28037,0 0.50608,-0.36646 0.50608,-0.82166 V 88.60115 c 0,-0.455197 -0.22571,-0.821655 -0.50608,-0.821655 z" /></clipPath><clipPath
       clipPathUnits="userSpaceOnUse"
       id="clipPath15890"><path
         style="display:block;fill:#000000;fill-opacity:0;stroke:#000000;stroke-width:1.5875;stroke-linecap:round;stroke-linejoin:bevel;stroke-dasharray:none;stroke-dashoffset:0;stroke-opacity:1;paint-order:stroke markers fill"
         id="rect15892"
         width="10.649523"
         height="40.653179"
         x="189.63269"
         y="97.223862"
         ry="0.73557025"
         rx="0.51152128"
         clip-path="url(#clipath_lpe_path-effect15883)"
         sodipodi:type="rect"
         d="m 190.14421,97.223862 h 9.62648 c 0.28338,0 0.51152,0.328064 0.51152,0.73557 v 39.182038 c 0,0.40751 -0.22814,0.73557 -0.51152,0.73557 h -9.62648 c -0.28338,0 -0.51152,-0.32806 -0.51152,-0.73557 V 97.959432 c 0,-0.407506 0.22814,-0.73557 0.51152,-0.73557 z"
         inkscape:path-effect="#path-effect15883" /></clipPath><clipPath
       clipPathUnits="userSpaceOnUse"
       id="clipath_lpe_path-effect15902"><path
         style="display:none;fill:#000000;fill-opacity:0;stroke:#000000;stroke-width:1.5875;stroke-linecap:round;stroke-linejoin:bevel;stroke-dasharray:none;stroke-dashoffset:0;stroke-opacity:1;paint-order:stroke markers fill"
         id="path15904"
         width="10.649523"
         height="40.653179"
         x="189.63269"
         y="97.223862"
         ry="0.73557025"
         rx="0.51152128"
         clip-path="url(#clipath_lpe_path-effect15883)"
         inkscape:path-effect="#path-effect15883"
         d="m 190.14421,97.223862 h 9.62648 c 0.28338,0 0.51152,0.328064 0.51152,0.73557 v 39.182038 c 0,0.40751 -0.22814,0.73557 -0.51152,0.73557 h -9.62648 c -0.28338,0 -0.51152,-0.32806 -0.51152,-0.73557 V 97.959432 c 0,-0.407506 0.22814,-0.73557 0.51152,-0.73557 z"
         sodipodi:type="rect" /><path
         id="lpe_path-effect15902"
         style="display:block;fill:#000000;fill-opacity:0;stroke:#000000;stroke-width:1.5875;stroke-linecap:round;stroke-linejoin:bevel;stroke-dasharray:none;stroke-dashoffset:0;stroke-opacity:1;paint-order:stroke markers fill"
         class="powerclip"
         d="m 175.87722,98.638921 h 23.09839 v 45.040809 h -23.09839 z m 14.26699,-1.415059 c -0.28338,0 -0.51152,0.328064 -0.51152,0.73557 v 39.182038 c 0,0.40751 0.22814,0.73557 0.51152,0.73557 h 9.62648 c 0.28338,0 0.51152,-0.32806 0.51152,-0.73557 V 97.959432 c 0,-0.407506 -0.22814,-0.73557 -0.51152,-0.73557 z" /></clipPath><clipPath
       clipPathUnits="userSpaceOnUse"
       id="clipPath15909"><path
         style="display:block;fill:#000000;fill-opacity:0;stroke:#000000;stroke-width:1.5875;stroke-linecap:round;stroke-linejoin:bevel;stroke-dasharray:none;stroke-dashoffset:0;stroke-opacity:1;paint-order:stroke markers fill"
         id="rect15911"
         width="11.510885"
         height="33.453308"
         x="181.67097"
         y="104.43267"
         ry="0.61347997"
         rx="0.8079477"
         clip-path="url(#clipath_lpe_path-effect15902)"
         sodipodi:type="rect"
         d="m 182.47892,104.43267 h 9.89499 c 0.44761,0 0.80795,0.27361 0.80795,0.61348 v 32.22635 c 0,0.33987 -0.36034,0.61348 -0.80795,0.61348 h -9.89499 c -0.4476,0 -0.80795,-0.27361 -0.80795,-0.61348 v -32.22635 c 0,-0.33987 0.36035,-0.61348 0.80795,-0.61348 z"
         inkscape:path-effect="#path-effect15902" /></clipPath><clipPath
       clipPathUnits="userSpaceOnUse"
       id="clipPath28934"><path
         id="path28936"
         style="display:inline;fill-opacity:0;stroke:#000000;stroke-width:1.5875;stroke-linecap:round;stroke-linejoin:bevel;paint-order:stroke markers fill"
         inkscape:label="horizon lower"
         d="m 210.85072,113.57972 c 2e-4,11.71588 -9.4973,21.21361 -21.21318,21.21369 -11.71588,-8e-5 -21.21337,-9.49781 -21.21317,-21.21369 L 156.25463,111.8136 V 82.522547 c 0,-0.538692 0.2433,-0.97236 0.54553,-0.97236 h 65.67477 c 0.30222,0 0.54553,0.433668 0.54553,0.97236 V 111.8136 Z"
         sodipodi:nodetypes="ccccsssscc" /></clipPath><clipPath
       clipPathUnits="userSpaceOnUse"
       id="clipPath29038"><path
         id="path29040"
         style="display:none;opacity:1;fill-opacity:0;stroke:#000000;stroke-width:1.55736;stroke-linecap:round;stroke-linejoin:bevel;paint-order:stroke markers fill"
         d="m 198.08853,87.40419 h 6.71836 c 0.42727,0 0.77124,0.306944 0.77124,0.688215 v 51.258625 c 0,0.38128 -0.34397,0.68822 -0.77124,0.68822 h -6.71836 c -0.42727,0 -0.77124,-0.30694 -0.77124,-0.68822 V 88.092405 c 0,-0.381271 0.34397,-0.688215 0.77124,-0.688215 z m -8.05156,7.898517 c -0.42726,0 -0.77153,0.307059 -0.77153,0.68833 v 50.897153 c 0,0.38127 0.34427,0.68781 0.77153,0.68781 h 11.05618 c 0.42726,0 0.77101,-0.30654 0.77101,-0.68781 v -6.8492 h -3.77548 c -0.42727,0 -0.77153,-0.30654 -0.77153,-0.68781 V 95.302707 Z m -8.05222,7.898223 c -0.42726,0 -0.77101,0.30706 -0.77101,0.68833 v 51.11419 c 0,0.38127 0.34375,0.68782 0.77101,0.68782 h 11.12852 c 0.42727,0 0.77153,-0.30655 0.77153,-0.68782 v -7.06571 h -3.84783 c -0.42726,0 -0.77153,-0.30706 -0.77153,-0.68833 v -44.04848 z m -8.0517,7.89823 c -0.42727,0 -0.77102,0.30706 -0.77102,0.68833 v 50.10185 c 0,0.38127 0.34375,0.68833 0.77102,0.68833 h 10.47791 c 0.42727,0 0.77153,-0.30706 0.77153,-0.68833 v -6.05338 h -3.19774 c -0.42726,0 -0.77101,-0.30706 -0.77101,-0.68833 v -44.04847 z"
         clip-path="url(#clipPath28934)"
         inkscape:label="bars" /><path
         id="lpe_path-effect29042"
         style="display:inline;opacity:1;fill-opacity:0;stroke:#000000;stroke-width:1.55736;stroke-linecap:round;stroke-linejoin:bevel;paint-order:stroke markers fill"
         class="powerclip"
         d="m 158.46132,82.403878 h 62.35244 v 36.176212 h -62.35244 z m 39.62721,5.000312 c -0.42727,0 -0.77124,0.306944 -0.77124,0.688215 v 51.258625 c 0,0.38128 0.34397,0.68822 0.77124,0.68822 h 6.71836 c 0.42727,0 0.77124,-0.30694 0.77124,-0.68822 V 88.092405 c 0,-0.381271 -0.34397,-0.688215 -0.77124,-0.688215 z m -8.05156,7.898517 c -0.42726,0 -0.77153,0.307059 -0.77153,0.68833 v 50.897153 c 0,0.38127 0.34427,0.68781 0.77153,0.68781 h 11.05618 c 0.42726,0 0.77101,-0.30654 0.77101,-0.68781 v -6.8492 h -3.77548 c -0.42727,0 -0.77153,-0.30654 -0.77153,-0.68781 V 95.302707 Z m -8.05222,7.898223 c -0.42726,0 -0.77101,0.30706 -0.77101,0.68833 v 51.11419 c 0,0.38127 0.34375,0.68782 0.77101,0.68782 h 11.12852 c 0.42727,0 0.77153,-0.30655 0.77153,-0.68782 v -7.06571 h -3.84783 c -0.42726,0 -0.77153,-0.30706 -0.77153,-0.68833 v -44.04848 z m -8.0517,7.89823 c -0.42727,0 -0.77102,0.30706 -0.77102,0.68833 v 50.10185 c 0,0.38127 0.34375,0.68833 0.77102,0.68833 h 10.47791 c 0.42727,0 0.77153,-0.30706 0.77153,-0.68833 v -6.05338 h -3.19774 c -0.42726,0 -0.77101,-0.30706 -0.77101,-0.68833 v -44.04847 z" /></clipPath><linearGradient
       inkscape:collect="always"
       xlink:href="#linearGradient12647"
       id="linearGradient12649"
       x1="167.98355"
       y1="95.749161"
       x2="189.96214"
       y2="95.749161"
       gradientUnits="userSpaceOnUse" /><linearGradient
       inkscape:collect="always"
       xlink:href="#linearGradient12653"
       id="linearGradient12655"
       x1="194.76273"
       y1="95.74916"
       x2="216.74131"
       y2="95.74916"
       gradientUnits="userSpaceOnUse" /><linearGradient
       inkscape:collect="always"
       xlink:href="#linearGradient12659"
       id="linearGradient12661"
       x1="221.54189"
       y1="95.74916"
       x2="243.52047"
       y2="95.74916"
       gradientUnits="userSpaceOnUse" /><linearGradient
       inkscape:collect="always"
       xlink:href="#linearGradient12665"
       id="linearGradient12667"
       x1="248.32106"
       y1="95.74916"
       x2="270.29964"
       y2="95.74916"
       gradientUnits="userSpaceOnUse" /><linearGradient
       inkscape:collect="always"
       xlink:href="#linearGradient12671"
       id="linearGradient12673"
       x1="275.10022"
       y1="95.74916"
       x2="297.0788"
       y2="95.74916"
       gradientUnits="userSpaceOnUse" /><linearGradient
       inkscape:collect="always"
       xlink:href="#linearGradient4683"
       id="linearGradient2498"
       x1="185.68634"
       y1="170.58907"
       x2="238.03877"
       y2="170.58907"
       gradientUnits="userSpaceOnUse" /><linearGradient
       inkscape:collect="always"
       xlink:href="#linearGradient12677"
       id="linearGradient4187"
       x1="163.46132"
       y1="100.49198"
       x2="215.81377"
       y2="100.49198"
       gradientUnits="userSpaceOnUse" /><linearGradient
       inkscape:collect="always"
       xlink:href="#linearGradient4602"
       id="linearGradient4606"
       gradientUnits="userSpaceOnUse" /><linearGradient
       inkscape:collect="always"
       xlink:href="#linearGradient4602"
       id="linearGradient4685"
       gradientUnits="userSpaceOnUse" /><filter
       inkscape:collect="always"
       style="color-interpolation-filters:sRGB"
       id="filter2542"
       x="-0.085965664"
       y="-0.034190883"
       width="1.1719313"
       height="1.0683818"><feGaussianBlur
         inkscape:collect="always"
         stdDeviation="0.037004383"
         id="feGaussianBlur2544" /></filter><filter
       inkscape:collect="always"
       style="color-interpolation-filters:sRGB"
       id="filter2546"
       x="-0.0072073178"
       y="-0.0023263633"
       width="1.0144146"
       height="1.0046527"><feGaussianBlur
         inkscape:collect="always"
         stdDeviation="0.037004383"
         id="feGaussianBlur2548" /></filter><filter
       inkscape:collect="always"
       style="color-interpolation-filters:sRGB"
       id="filter2550"
       x="-0.014478793"
       y="-0.014400199"
       width="1.0288155"
       height="1.0288683"><feGaussianBlur
         inkscape:collect="always"
         stdDeviation="0.13985905"
         id="feGaussianBlur2552" /></filter><filter
       inkscape:collect="always"
       style="color-interpolation-filters:sRGB"
       id="filter2554"
       x="-0.025236028"
       y="-0.0035034577"
       width="1.0504721"
       height="1.0539755"><feGaussianBlur
         inkscape:collect="always"
         stdDeviation="0.037004383"
         id="feGaussianBlur2556" /></filter><filter
       inkscape:collect="always"
       style="color-interpolation-filters:sRGB"
       id="filter2558"
       x="-0.025236028"
       y="-0.050472062"
       width="1.0504721"
       height="1.0539755"><feGaussianBlur
         inkscape:collect="always"
         stdDeviation="0.037004383"
         id="feGaussianBlur2560" /></filter><filter
       inkscape:collect="always"
       style="color-interpolation-filters:sRGB"
       id="filter2562"
       x="-0.02447513"
       y="-0.016472152"
       width="1.0489503"
       height="1.0329443"><feGaussianBlur
         inkscape:collect="always"
         stdDeviation="0.037004383"
         id="feGaussianBlur2564" /></filter><filter
       inkscape:collect="always"
       style="color-interpolation-filters:sRGB"
       id="filter2566"
       x="-0.028246261"
       y="-0.012180275"
       width="1.0564925"
       height="1.0243605"><feGaussianBlur
         inkscape:collect="always"
         stdDeviation="0.037004383"
         id="feGaussianBlur2568" /></filter></defs><g
     inkscape:groupmode="layer"
     id="layer7"
     inkscape:label="text"
     transform="translate(-12.3983,-84.759857)"
     style="display:inline;stroke-width:2.38125066;stroke-dasharray:none;paint-order:markers fill stroke"><path
       d="M 59.81294,123.98875 H 26.007034 v 58.46934 H 39.330955 V 158.99948 H 58.253758 V 147.30561 H 39.330955 V 135.68262 H 59.81294 Z"
       style="font-size:192px;line-height:125%;font-family:'League Spartan';-inkscape-font-specification:'League Spartan';letter-spacing:0px;word-spacing:0px;white-space:pre;shape-padding:13.1389;opacity:0.95;fill:#73756c;fill-opacity:1;stroke:#000000;stroke-width:2.38125066;stroke-linejoin:round;stroke-dasharray:none;stroke-opacity:1;paint-order:markers fill stroke;filter:url(#filter2542)"
       id="path935"
       inkscape:label="F" /><path
       d="m 72.640717,123.63439 c -4.110572,0 -7.441552,3.33098 -7.441552,7.44156 0,4.11057 3.33098,7.44155 7.441552,7.44155 4.110571,0 7.441551,-3.33098 7.441551,-7.44155 0,-4.11058 -3.33098,-7.44156 -7.441551,-7.44156 z m -6.449345,22.4664 h 12.54433 v 36.3573 h -12.54433 z"
       style="font-size:192px;line-height:125%;font-family:'League Spartan';-inkscape-font-specification:'League Spartan';letter-spacing:0px;word-spacing:0px;white-space:pre;shape-padding:13.1389;opacity:0.95;fill:#73756c;fill-opacity:1;stroke:#000000;stroke-width:2.38125066;stroke-linejoin:round;stroke-dasharray:none;stroke-opacity:1;paint-order:markers fill stroke;filter:url(#filter2542)"
       id="path937"
       inkscape:label="i" /><path
       d="m 87.594695,182.45809 h 12.544325 v -20.55286 c 0,-3.61447 3.68534,-7.08719 7.44156,-7.08719 4.0397,0 6.52021,3.47272 6.52021,7.08719 v 20.55286 h 12.54433 v -23.95471 c 0,-10.13469 -9.28422,-13.46567 -15.94618,-13.46567 -3.96883,0 -7.58329,2.05529 -10.41817,4.89017 h -0.14175 v -3.82709 H 87.594695 Z"
       style="font-size:192px;line-height:125%;font-family:'League Spartan';-inkscape-font-specification:'League Spartan';letter-spacing:0px;word-spacing:0px;white-space:pre;shape-padding:13.1389;opacity:0.95;fill:#73756c;fill-opacity:1;stroke:#000000;stroke-width:2.38125066;stroke-linejoin:round;stroke-dasharray:none;stroke-opacity:1;paint-order:markers fill stroke;filter:url(#filter2542)"
       id="path939"
       inkscape:label="n" /><path
       d="m 165.55375,170.40986 c -13.39479,0 -19.27715,-9.35509 -19.27715,-17.22188 0,-7.79591 5.88236,-17.151 19.27715,-17.151 6.80371,0 11.48126,3.61447 11.48126,3.61447 l 5.66975,-11.33951 c 0,0 -6.52022,-5.38627 -19.20629,-5.38627 -16.58403,0 -31.67975,13.60741 -31.67975,30.40406 0,16.72577 15.1666,30.19144 31.67975,30.19144 12.68607,0 19.20629,-5.38627 19.20629,-5.38627 l -5.66975,-11.33951 c 0,0 -4.67755,3.61447 -11.48126,3.61447 z"
       style="font-size:192px;line-height:125%;font-family:'League Spartan';-inkscape-font-specification:'League Spartan';letter-spacing:0px;word-spacing:0px;white-space:pre;shape-padding:13.1389;opacity:0.95;fill:#6f8ab7;fill-opacity:1;stroke:#000000;stroke-width:2.38125066;stroke-linejoin:round;stroke-dasharray:none;stroke-opacity:1;paint-order:markers fill stroke;filter:url(#filter2542)"
       id="path941"
       inkscape:label="C" /><path
       d="m 294.18646,182.45809 h 13.32392 l -5.24452,-58.46934 h -14.17438 l -12.96956,33.73504 -12.96957,-33.73504 h -14.17438 l -5.24452,58.46934 h 13.32392 l 2.764,-34.65637 h 0.35436 l 11.97736,34.30201 h 7.93765 l 11.97736,-34.30201 h 0.35436 z"
       style="font-size:192px;line-height:125%;font-family:'League Spartan';-inkscape-font-specification:'League Spartan';letter-spacing:0px;word-spacing:0px;white-space:pre;shape-padding:13.1389;opacity:0.95;fill:#6f8ab7;fill-opacity:1;stroke:#000000;stroke-width:2.38125066;stroke-linejoin:round;stroke-dasharray:none;stroke-opacity:1;paint-order:markers fill stroke;filter:url(#filter2542)"
       id="path943"
       inkscape:label="M" /></g><g
     inkscape:groupmode="layer"
     id="layer2"
     inkscape:label="spyglass"
     style="display:inline"
     transform="translate(-12.3983,-84.759857)"><g
       id="g34190"
       inkscape:label="handle"
       style="display:inline;fill:url(#linearGradient4685);fill-opacity:1;stroke:none;stroke-opacity:1;stroke-width:2.38125066;stroke-dasharray:none;filter:url(#filter2546);opacity:0.95;stroke-linejoin:round;paint-order:stroke fill markers"
       transform="rotate(37,84.899775,233.14202)"><path
         style="display:inline;fill:url(#linearGradient4685);fill-opacity:1;stroke:none;stroke-opacity:1;color:#000000;stroke-linecap:round;stroke-linejoin:round;paint-order:stroke fill markers;stroke-width:2.38125066;stroke-dasharray:none"
         d="m 138.83789,157.36328 c -0.41846,0 -0.88672,0.47021 -0.88672,0.88867 v 5.42188 c 0,1.13056 0.45216,2.06336 1.06836,2.71484 0.6162,0.65149 1.36165,1.0596 2.02734,1.38281 1.88386,0.91467 4.2431,0.91467 6.12696,0 0.66569,-0.32321 1.41309,-0.73132 2.02929,-1.38281 0.61621,-0.65148 1.06836,-1.58428 1.06836,-2.71484 v -5.42188 c 0,-0.41846 -0.46825,-0.88867 -0.88671,-0.88867 z m 0.88672,1.77539 h 8.77148 v 4.53516 c 0,0.69756 -0.21637,1.10743 -0.58398,1.49609 -0.36761,0.38866 -0.9201,0.71571 -1.51367,1.00391 -1.32558,0.64361 -3.2506,0.64361 -4.57617,0 -0.59357,-0.2882 -1.14607,-0.61525 -1.51368,-1.00391 -0.36761,-0.38866 -0.58398,-0.79853 -0.58398,-1.49609 z"
         id="path34158"
         sodipodi:nodetypes="sssssssssssccssssssc"
         transform="translate(1.5342061e-6,-8.9287967)"
         inkscape:label="lower" /><path
         style="display:inline;fill:none;fill-opacity:1;stroke:none;stroke-opacity:1;color:#000000;stroke-width:2.38125066;stroke-linecap:round;stroke-linejoin:round;stroke-dasharray:none;paint-order:stroke fill markers"
         d="m 138.83789,136.76648 c -0.418,0 -0.88672,0.46872 -0.88672,0.88672 v 13.55273 c 0,0.418 0.46872,0.88672 0.88672,0.88672 h 10.54687 c 0.418,0 0.88672,-0.46872 0.88672,-0.88672 V 137.6532 c 0,-0.418 -0.46872,-0.88672 -0.88672,-0.88672 z m 0.88867,1.77539 h 8.76953 v 11.77734 h -8.76953 z"
         id="path34164"
         sodipodi:nodetypes="sssssssssccccc"
         transform="translate(3.1001656e-7,-4.6849785)"
         inkscape:label="middle" /><path
         style="display:inline;fill:url(#linearGradient4685);fill-opacity:1;stroke:none;stroke-opacity:1;color:#000000;stroke-width:2.38125066;stroke-linecap:round;stroke-linejoin:round;stroke-dasharray:none;paint-order:stroke fill markers"
         d="m 141.43457,125.07617 c -1.02207,0 -1.92946,0.53506 -2.53516,1.30469 -0.6057,0.76963 -0.94922,1.78132 -0.94922,2.88281 v 0.9043 c 0,0.41846 0.47021,0.88672 0.88867,0.88672 h 10.54492 c 0.41847,0 0.88868,-0.46825 0.88868,-0.88672 v -0.9043 c 0,-1.10149 -0.34353,-2.11318 -0.94922,-2.88281 -0.6057,-0.76963 -1.51504,-1.30469 -2.53711,-1.30469 z m 0,1.77539 h 5.35156 c 0.4169,0 0.80743,0.20359 1.14062,0.62696 0.33319,0.42336 0.57032,1.05851 0.57032,1.78515 v 0.0176 h -8.77149 v -0.0176 c 0,-0.72664 0.23517,-1.36179 0.56836,-1.78515 0.33319,-0.42337 0.72373,-0.62696 1.14063,-0.62696 z"
         id="path34170"
         sodipodi:nodetypes="sssssssssssssssccsss"
         inkscape:label="upper" /><path
         style="display:inline;fill:url(#linearGradient4685);fill-rule:evenodd;stroke:#000000;stroke-width:2.38125066;stroke-linecap:butt;stroke-linejoin:round;stroke-dasharray:none;stroke-opacity:1;fill-opacity:1;paint-order:stroke fill markers"
         d="M 144.11132,125.11161 V 121.353"
         id="path34174"
         inkscape:label="stock" /><path
         style="display:inline;fill:#000000;fill-opacity:1;stroke:#000000;stroke-width:9.00000009;stroke-linecap:round;stroke-linejoin:round;stroke-dasharray:none;stroke-opacity:1;paint-order:stroke fill markers"
         d="m 630.58073,470.8715 c -1.09886,-0.39252 -3.08684,-1.35182 -4.41775,-2.13179 -6.60788,-3.87247 -11.53227,-13.82783 -9.00371,-18.20229 2.13987,-3.70202 11.05782,-14.87626 11.56215,-14.48743 0.31801,0.24519 6.11156,4.57714 12.87455,9.62656 6.76299,5.04942 12.37917,9.24679 12.48041,9.32748 0.49987,0.39843 -11.41912,15.37512 -12.70082,15.9591 -1.91488,0.87248 -8.24629,0.81873 -10.79483,-0.0916 z"
         id="path4689"
         inkscape:label="handle lower inner"
         transform="matrix(0.2113057,-0.15923027,0.15923027,0.2113057,-62.301092,158.27123)" /><path
         style="display:inline;fill:#000000;fill-opacity:1;stroke:#000000;stroke-opacity:1;stroke-width:9.00000009;stroke-linecap:round;stroke-linejoin:round;stroke-dasharray:none;paint-order:stroke fill markers"
         d="m 651.89351,431.11839 -12.92889,-9.80818 12.59617,-16.78273 c 6.92789,-9.2305 12.90849,-17.12098 13.29021,-17.53441 0.57841,-0.62645 2.77335,0.81986 13.17556,8.68176 6.86485,5.18839 12.67843,9.60919 12.91909,9.824 0.34524,0.30816 -23.08872,32.26308 -25.51728,34.79578 -0.4527,0.47211 -3.87608,-1.84884 -13.53486,-9.17622 z"
         id="path4687"
         inkscape:label="handle middle inner"
         transform="matrix(0.2113057,-0.15923027,0.15923027,0.2113057,-62.301091,158.27123)" /><path
         style="display:inline;fill:#000000;fill-opacity:1;stroke:#000000;stroke-width:9.00000009;stroke-linecap:round;stroke-linejoin:round;stroke-dasharray:none;stroke-opacity:1;paint-order:stroke fill markers"
         d="m 688.75722,381.55219 -12.68097,-9.63939 1.1501,-1.22422 c 1.76518,-1.87895 5.69973,-3.20794 7.49316,-2.531 2.83663,1.07071 18.48659,13.27283 19.18464,14.95807 0.97678,2.35815 -0.38147,8.26051 -1.87056,8.12866 -0.32748,-0.029 -6.30184,-4.39045 -13.27637,-9.69212 z"
         id="path4691"
         inkscape:label="handle upper inner"
         transform="matrix(0.2113057,-0.15923027,0.15923027,0.2113057,-62.301092,158.27123)" /></g><path
       style="display:inline;fill:#6f8ab7;stroke:#6f8ab7;stroke-width:4.63724;stroke-linecap:round;stroke-linejoin:round;paint-order:stroke fill markers;fill-opacity:1;stroke-opacity:1;filter:url(#filter2550);opacity:0.95"
       d="m 738.19923,365.87397 c -36.78657,-6.16686 -66.69611,-35.12744 -74.76643,-72.39427 -3.0032,-13.86812 -2.03894,-31.92635 2.47129,-46.28065 14.08559,-44.829 60.81026,-72.26442 106.63627,-62.61383 l 6.1299,1.29091 0.2346,4.53819 0.2346,4.5382 -2.16678,-0.54939 c -16.63092,-4.2168 -35.15178,-3.69284 -50.17005,1.41932 -14.99031,5.10264 -29.40044,15.4925 -39.37548,28.39016 -12.91941,16.70472 -19.24399,39.67002 -16.58026,60.20491 4.82633,37.20653 30.44151,64.76953 67.63394,72.77689 6.59084,1.41898 25.65404,1.2122 32.53263,-0.35289 47.8976,-10.89815 76.44582,-58.16353 63.2585,-104.73287 -2.33033,-8.22925 -8.35691,-20.5904 -13.06649,-26.80076 -3.49424,-4.60773 -3.50498,-4.64122 -3.47024,-10.82023 l 0.0349,-6.1982 4.30286,4.63725 c 9.28219,10.00353 17.16423,24.27388 20.71897,37.51143 11.50608,42.84771 -7.69594,86.04337 -47.56191,106.99234 -15.76155,8.28245 -38.18655,11.60251 -57.03076,8.44349 z"
       id="path2559"
       inkscape:label="circle fill"
       transform="matrix(0.26458341,0,0,0.26458341,12.3983,84.759857)" /><path
       id="path29015"
       style="display:inline;fill:none;fill-opacity:0;stroke:url(#linearGradient2498);stroke-width:2.38125066;stroke-linejoin:round;stroke-dasharray:none;filter:url(#filter2554);opacity:0.95;paint-order:stroke fill markers"
       inkscape:label="circle lower"
       d="m 233.07588,157.50096 a 21.21332,21.21332 0 0 1 -21.21332,21.21332 21.21332,21.21332 0 0 1 -21.21332,-21.21332 m 46.56271,0 v 0 a 25.34939,25.34939 0 0 1 -25.34939,25.34939 25.34939,25.34939 0 0 1 -25.34939,-25.34939" /><path
       id="path29013"
       style="display:inline;fill:none;fill-opacity:1;stroke:url(#linearGradient4187);stroke-width:2.38125066;stroke-linejoin:round;stroke-dasharray:none;stroke-opacity:1;filter:url(#filter2558);opacity:0.95;paint-order:stroke fill markers"
       inkscape:label="circle upper"
       d="m 168.42422,113.58009 a 21.21332,21.21332 0 0 1 21.21332,-21.213316 21.21332,21.21332 0 0 1 21.21332,21.213316 m -46.56271,0 a 25.34939,25.34939 0 0 1 25.34939,-25.349387 25.34939,25.34939 0 0 1 25.34939,25.349387"
       clip-path="url(#clipPath29038)"
       transform="translate(22.225004,43.920845)"
       inkscape:original-d="m 168.42422,113.58009 a 21.21332,21.21332 0 0 1 21.21332,-21.213316 21.21332,21.21332 0 0 1 21.21332,21.213316 m -46.56271,0 a 25.34939,25.34939 0 0 1 25.34939,-25.349387 25.34939,25.34939 0 0 1 25.34939,25.349387"
       inkscape:path-effect="#path-effect29042" /></g><g
     inkscape:groupmode="layer"
     id="layer6"
     inkscape:label="bars"
     style="display:inline"
     transform="translate(-12.3983,-84.759857)"><g
       id="g4339"
       inkscape:label="bars color"
       style="display:inline;fill:#ffbf00;stroke:#ffbf00;fill-opacity:1;stroke-width:1.32291703;stroke-dasharray:none;stroke-opacity:1;filter:url(#filter2562);opacity:0.95;stroke-linejoin:round;paint-order:stroke fill markers"><path
         style="fill:#ffbf00;fill-opacity:1;stroke:#ffbf00;stroke-width:4.99999994;stroke-linecap:round;stroke-linejoin:round;stroke-dasharray:none;stroke-opacity:1;paint-order:stroke fill markers"
         d="m 714.28103,340.65648 c -5.78837,-3.55692 -10.00266,-6.882 -14.89224,-11.75001 l -4.23541,-4.21671 v -27.90484 -27.90484 h 11.74984 11.74984 v 37.16229 c 0,20.43926 -0.0615,37.15565 -0.13662,37.14754 -0.0752,-0.008 -1.98108,-1.14815 -4.23541,-2.53343 z"
         id="path4258"
         transform="matrix(0.26458341,0,0,0.26458341,12.3983,84.759857)"
         inkscape:label="bar1" /><path
         style="fill:#ffbf00;fill-opacity:1;stroke:#ffbf00;stroke-width:4.99999994;stroke-linecap:round;stroke-linejoin:round;stroke-dasharray:none;stroke-opacity:1;paint-order:stroke fill markers"
         d="m 740.51323,350.54153 c -2.25433,-0.40834 -6.61953,-1.5296 -9.70045,-2.49168 l -5.60167,-1.74925 v -53.73913 -53.73912 h 12.0231 12.02309 v 56.28993 56.28994 l -2.32264,-0.0591 c -1.27746,-0.0325 -4.1671,-0.39322 -6.42143,-0.80156 z"
         id="path4260"
         transform="matrix(0.26458341,0,0,0.26458341,12.3983,84.759857)"
         inkscape:label="bar2" /><path
         style="fill:#ffbf00;fill-opacity:1;stroke:#ffbf00;stroke-width:4.99999994;stroke-linecap:round;stroke-linejoin:round;stroke-dasharray:none;stroke-opacity:1;paint-order:stroke fill markers"
         d="m 755.81535,280.35667 v -71.04555 h 11.74984 11.74984 v 69.05318 69.05317 l -3.96215,1.17516 c -5.28119,1.56637 -12.52808,2.80792 -16.39513,2.80884 l -3.1424,7.5e-4 z"
         id="path4262"
         transform="matrix(0.26458341,0,0,0.26458341,12.3983,84.759857)"
         inkscape:label="bar3" /><path
         style="fill:#ffbf00;fill-opacity:1;stroke:#ffbf00;stroke-width:4.99999994;stroke-linecap:round;stroke-linejoin:round;stroke-dasharray:none;stroke-opacity:1;paint-order:stroke fill markers"
         d="m 786.41959,261.77553 v -82.52214 h 12.29634 12.29635 v 73.63612 73.63612 l -3.6889,3.4998 c -2.0289,1.92489 -5.4104,4.77782 -7.51444,6.33983 -3.79215,2.81525 -12.15777,7.93241 -12.96805,7.93241 -0.23171,0 -0.4213,-37.13497 -0.4213,-82.52214 z"
         id="path4264"
         transform="matrix(0.26458341,0,0,0.26458341,12.3983,84.759857)"
         inkscape:label="bar4" /></g><path
       id="rect25835"
       style="display:inline;opacity:0.95;fill-opacity:0;stroke:#000000;stroke-width:1.65364629;stroke-linecap:round;stroke-linejoin:round;stroke-dasharray:none;paint-order:stroke fill markers;stroke-opacity:1;filter:url(#filter2566)"
       d="m 198.08853,87.40419 h 6.71836 c 0.42727,0 0.77124,0.306944 0.77124,0.688215 v 51.258625 c 0,0.38128 -0.34397,0.68822 -0.77124,0.68822 h -6.71836 c -0.42727,0 -0.77124,-0.30694 -0.77124,-0.68822 V 88.092405 c 0,-0.381271 0.34397,-0.688215 0.77124,-0.688215 z m -8.05156,7.898517 c -0.42726,0 -0.77153,0.307059 -0.77153,0.68833 v 50.897153 c 0,0.38127 0.34427,0.68781 0.77153,0.68781 h 11.05618 c 0.42726,0 0.77101,-0.30654 0.77101,-0.68781 v -6.8492 h -3.77548 c -0.42727,0 -0.77153,-0.30654 -0.77153,-0.68781 V 95.302707 Z m -8.05222,7.898223 c -0.42726,0 -0.77101,0.30706 -0.77101,0.68833 v 51.11419 c 0,0.38127 0.34375,0.68782 0.77101,0.68782 h 11.12852 c 0.42727,0 0.77153,-0.30655 0.77153,-0.68782 v -7.06571 h -3.84783 c -0.42726,0 -0.77153,-0.30706 -0.77153,-0.68833 v -44.04848 z m -8.0517,7.89823 c -0.42727,0 -0.77102,0.30706 -0.77102,0.68833 v 50.10185 c 0,0.38127 0.34375,0.68833 0.77102,0.68833 h 10.47791 c 0.42727,0 0.77153,-0.30706 0.77153,-0.68833 v -6.05338 h -3.19774 c -0.42726,0 -0.77101,-0.30706 -0.77101,-0.68833 v -44.04847 z"
       clip-path="url(#clipPath28934)"
       inkscape:label="bars"
       transform="translate(22.225004,43.920845)" /></g><g
     inkscape:groupmode="layer"
     id="layer1"
     inkscape:label="palette"><rect
       style="display:inline;fill:url(#linearGradient4606);stroke:none;stroke-width:1.5875;stroke-linecap:round;stroke-linejoin:bevel;paint-order:stroke markers fill;fill-opacity:1"
       id="rect8880-2"
       width="21.978584"
       height="12.001464"
       x="301.87939"
       y="89.748428"
       rx="2.5974176"
       ry="3.299871"
       transform="translate(-12.3983,-84.759858)"
       inkscape:label="color6" /><rect
       style="display:inline;fill:url(#linearGradient12673);fill-opacity:1;stroke:none;stroke-width:1.5875;stroke-linecap:round;stroke-linejoin:bevel;paint-order:stroke markers fill"
       id="rect8880-5"
       width="21.978584"
       height="12.001464"
       x="275.10022"
       y="89.748428"
       rx="2.5974176"
       ry="3.299871"
       transform="translate(-12.3983,-84.759858)"
       inkscape:label="coor5" /><rect
       style="display:inline;fill:url(#linearGradient12667);fill-opacity:1;stroke:none;stroke-width:1.5875;stroke-linecap:round;stroke-linejoin:bevel;paint-order:stroke markers fill"
       id="rect8880-12"
       width="21.978584"
       height="12.001464"
       x="248.32106"
       y="89.748428"
       rx="2.5974176"
       ry="3.299871"
       transform="translate(-12.3983,-84.759858)"
       inkscape:label="color4" /><rect
       style="display:inline;fill:url(#linearGradient12661);fill-opacity:1;stroke:none;stroke-width:1.5875;stroke-linecap:round;stroke-linejoin:bevel;paint-order:stroke markers fill"
       id="rect8880-7"
       width="21.978584"
       height="12.001464"
       x="221.54189"
       y="89.748428"
       rx="2.5974176"
       ry="3.299871"
       transform="translate(-12.3983,-84.759858)"
       inkscape:label="color3" /><rect
       style="display:inline;fill:url(#linearGradient12655);fill-opacity:1;stroke:none;stroke-width:1.5875;stroke-linecap:round;stroke-linejoin:bevel;paint-order:stroke markers fill"
       id="rect8880-1"
       width="21.978584"
       height="12.001464"
       x="194.76273"
       y="89.748428"
       rx="2.5974176"
       ry="3.299871"
       transform="translate(-12.3983,-84.759858)"
       inkscape:label="color2" /><rect
       style="display:inline;fill:url(#linearGradient12649);fill-opacity:1.0;stroke:none;stroke-width:1.5875;stroke-linecap:round;stroke-linejoin:bevel;paint-order:stroke markers fill"
       id="rect8880"
       width="21.978584"
       height="12.001464"
       x="167.98355"
       y="89.748428"
       rx="2.5974176"
       ry="3.299871"
       transform="translate(-12.3983,-84.759858)"
       inkscape:label="color1" /></g><g
     inkscape:groupmode="layer"
     id="layer4"
     inkscape:label="masks"
     style="display:none"
     transform="translate(-12.3983,-84.759857)"><path
       id="rect23465"
       style="display:inline;opacity:1;fill-opacity:0;stroke:#000000;stroke-width:1.5875;stroke-linecap:round;stroke-linejoin:bevel;paint-order:stroke markers fill"
       inkscape:label="horizon upper"
       d="m 179.02518,158.29457 h 65.67477 c 0.30222,0 0.54552,0.43368 0.54552,0.97236 v 29.29105 c 0,0.53869 -0.2433,0.97236 -0.54552,0.97236 h -65.67477 c -0.30223,0 -0.54553,-0.43367 -0.54553,-0.97236 v -29.29105 c 0,-0.53868 0.2433,-0.97236 0.54553,-0.97236 z m 54.05055,-0.79376 c -8e-5,-11.71568 -9.4975,-21.21309 -21.21318,-21.21317 -11.71568,8e-5 -21.21309,9.49749 -21.21317,21.21317" /><path
       id="rect23465-8"
       style="display:inline;fill-opacity:0;stroke:#000000;stroke-width:1.5875;stroke-linecap:round;stroke-linejoin:bevel;paint-order:stroke markers fill"
       inkscape:label="horizon lower"
       d="m 233.07574,157.50059 c 2e-4,11.71588 -9.4973,21.21361 -21.21318,21.21369 -11.71588,-8e-5 -21.21337,-9.49781 -21.21317,-21.21369 l -12.16974,-1.76612 v -29.29106 c 0,-0.53869 0.2433,-0.97236 0.54553,-0.97236 h 65.67477 c 0.30222,0 0.54553,0.43367 0.54553,0.97236 v 29.29106 z"
       sodipodi:nodetypes="ccccsssscc" /></g></svg>
