<?xml version="1.0" encoding="UTF-8"?>
<svg id="Layer_2" data-name="Layer 2" xmlns="http://www.w3.org/2000/svg" viewBox="0 0 563.01 123.07">
  <defs>
    <style>
      .cls-1, .cls-2, .cls-3, .cls-4 {
        opacity: .95;
      }

      .cls-1, .cls-3, .cls-4 {
        isolation: isolate;
      }

      .cls-1, .cls-5 {
        fill: #fff;
      }

      .cls-3 {
        fill: none;
        stroke: #fff;
        stroke-miterlimit: 10;
        stroke-width: 8px;
      }

      .cls-6 {
        fill: #febf10;
        stroke: #febf10;
        stroke-linecap: round;
        stroke-linejoin: round;
      }
    </style>
  </defs>
  <g id="logo" data-name="Layer 1">
    <g>
      <g>
        <g class="cls-4">
          <g class="cls-4">
            <polygon class="cls-5 letter" points="67.61 2.13 0 2.13 0 119.07 26.65 119.07 26.65 72.15 64.49 72.15 64.49 48.76 26.65 48.76 26.65 25.52 67.61 25.52 67.61 2.13"/>
          </g>
          <path class="cls-1 letter" d="M93.27,1.41c-8.22,0-14.88,6.66-14.88,14.88s6.66,14.88,14.88,14.88,14.88-6.66,14.88-14.88-6.66-14.88-14.88-14.88Zm-12.9,44.93h25.09V119.06h-25.09V46.34Z"/>
          <g class="cls-4">
            <path class="cls-5 letter" d="M123.18,119.07h25.09v-41.11c0-7.23,7.37-14.17,14.88-14.17,8.08,0,13.04,6.95,13.04,14.17v41.11h25.09v-47.91c0-20.27-18.57-26.93-31.89-26.93-7.94,0-15.17,4.11-20.84,9.78h-.28v-7.65h-25.09V119.07Z"/>
          </g>
        </g>
        <g class="cls-4">
          <path class="cls-5 letter" d="M279.09,94.97c-26.79,0-38.55-18.71-38.55-34.44s11.76-34.3,38.55-34.3c13.61,0,22.96,7.23,22.96,7.23l11.34-22.68S300.35,0,274.98,0c-33.17,0-63.36,27.21-63.36,60.81s30.33,60.38,63.36,60.38c25.37,0,38.41-10.77,38.41-10.77l-11.34-22.68s-9.36,7.23-22.96,7.23h0Z"/>
        </g>
      </g>
      <g class="cls-4">
        <polygon class="cls-5 letter" points="536.37 119.07 563.01 119.07 552.53 2.13 524.18 2.13 498.24 69.6 472.3 2.13 443.95 2.13 433.46 119.07 460.11 119.07 465.64 49.76 466.34 49.76 490.3 118.36 506.17 118.36 530.13 49.76 530.84 49.76 536.37 119.07"/>
      </g>
      <g>
        <g class="cls-2">
          <path class="cls-6 bars" d="M352.32,106.59c-3.06-1.45-5.29-2.8-7.88-4.78l-2.24-1.71v-22.7h12.44v15.11c0,8.31-.03,15.11-.07,15.11-.04,0-1.05-.47-2.24-1.03h0Z"/>
          <path class="cls-6 bars" d="M366.2,111.93c-1.19-.18-3.5-.68-5.13-1.1l-2.96-.77V62.5h12.72v49.81l-1.23-.03c-.68-.01-2.21-.17-3.4-.35h0Z"/>
          <path class="cls-6 bars" d="M374.3,80.13V47.93h12.44v62.58l-2.1,.53c-2.79,.71-6.63,1.27-8.68,1.27h-1.66s0-32.19,0-32.19Z"/>
          <path class="cls-6 bars" d="M390.49,72.17V36.09h13.01V100.48l-1.95,1.53c-1.07,.84-2.86,2.09-3.98,2.77-2.01,1.23-6.43,3.47-6.86,3.47-.12,0-.22-16.24-.22-36.08h0Z"/>
        </g>
        <circle class="cls-3 letter" cx="372.85" cy="68.78" r="50.29"/>
      </g>
    </g>
  </g>
</svg>